<mxfile host="app.diagrams.net" modified="2024-03-04T23:53:19.543Z" agent="Mozilla/5.0 (Windows NT 10.0; Win64; x64) AppleWebKit/537.36 (KHTML, like Gecko) Chrome/122.0.0.0 Safari/537.36" etag="-oQ5gTmzR573AwHgXTgM" version="22.1.18" type="github">
  <diagram id="C5RBs43oDa-KdzZeNtuy" name="Page-1">
    <mxGraphModel dx="954" dy="600" grid="1" gridSize="10" guides="1" tooltips="1" connect="1" arrows="1" fold="1" page="1" pageScale="1" pageWidth="827" pageHeight="1169" math="0" shadow="0">
      <root>
        <mxCell id="WIyWlLk6GJQsqaUBKTNV-0" />
        <mxCell id="WIyWlLk6GJQsqaUBKTNV-1" parent="WIyWlLk6GJQsqaUBKTNV-0" />
        <mxCell id="0NQRld8o1Z5ptFw5upHm-7" style="edgeStyle=orthogonalEdgeStyle;rounded=0;orthogonalLoop=1;jettySize=auto;html=1;exitX=0.5;exitY=1;exitDx=0;exitDy=0;exitPerimeter=0;entryX=0.5;entryY=0;entryDx=0;entryDy=0;" edge="1" parent="WIyWlLk6GJQsqaUBKTNV-1" source="0NQRld8o1Z5ptFw5upHm-0" target="0NQRld8o1Z5ptFw5upHm-1">
          <mxGeometry relative="1" as="geometry" />
        </mxCell>
        <mxCell id="0NQRld8o1Z5ptFw5upHm-0" value="Inicio" style="strokeWidth=2;html=1;shape=mxgraph.flowchart.start_1;whiteSpace=wrap;" vertex="1" parent="WIyWlLk6GJQsqaUBKTNV-1">
          <mxGeometry x="360" y="20" width="70" height="40" as="geometry" />
        </mxCell>
        <mxCell id="0NQRld8o1Z5ptFw5upHm-8" style="edgeStyle=orthogonalEdgeStyle;rounded=0;orthogonalLoop=1;jettySize=auto;html=1;exitX=0.5;exitY=1;exitDx=0;exitDy=0;entryX=0.5;entryY=0;entryDx=0;entryDy=0;" edge="1" parent="WIyWlLk6GJQsqaUBKTNV-1" source="0NQRld8o1Z5ptFw5upHm-1" target="0NQRld8o1Z5ptFw5upHm-2">
          <mxGeometry relative="1" as="geometry" />
        </mxCell>
        <mxCell id="0NQRld8o1Z5ptFw5upHm-1" value="VerificacionCodigo" style="rounded=1;whiteSpace=wrap;html=1;absoluteArcSize=1;arcSize=14;strokeWidth=2;" vertex="1" parent="WIyWlLk6GJQsqaUBKTNV-1">
          <mxGeometry x="332.5" y="80" width="125" height="30" as="geometry" />
        </mxCell>
        <mxCell id="0NQRld8o1Z5ptFw5upHm-2" value="Query SELECT correo AND codigo" style="rounded=1;whiteSpace=wrap;html=1;absoluteArcSize=1;arcSize=14;strokeWidth=2;" vertex="1" parent="WIyWlLk6GJQsqaUBKTNV-1">
          <mxGeometry x="292.5" y="140" width="205" height="40" as="geometry" />
        </mxCell>
        <mxCell id="0NQRld8o1Z5ptFw5upHm-10" style="edgeStyle=orthogonalEdgeStyle;rounded=0;orthogonalLoop=1;jettySize=auto;html=1;exitX=0.5;exitY=1;exitDx=0;exitDy=0;exitPerimeter=0;entryX=0.5;entryY=0;entryDx=0;entryDy=0;" edge="1" parent="WIyWlLk6GJQsqaUBKTNV-1" source="0NQRld8o1Z5ptFw5upHm-3" target="0NQRld8o1Z5ptFw5upHm-5">
          <mxGeometry relative="1" as="geometry" />
        </mxCell>
        <mxCell id="0NQRld8o1Z5ptFw5upHm-3" value="Â¿Existe registro?" style="strokeWidth=2;html=1;shape=mxgraph.flowchart.decision;whiteSpace=wrap;" vertex="1" parent="WIyWlLk6GJQsqaUBKTNV-1">
          <mxGeometry x="317.5" y="200" width="155" height="70" as="geometry" />
        </mxCell>
        <mxCell id="0NQRld8o1Z5ptFw5upHm-4" value="No encontrado" style="strokeWidth=2;html=1;shape=mxgraph.flowchart.display;whiteSpace=wrap;" vertex="1" parent="WIyWlLk6GJQsqaUBKTNV-1">
          <mxGeometry x="560" y="205" width="100" height="60" as="geometry" />
        </mxCell>
        <mxCell id="0NQRld8o1Z5ptFw5upHm-5" value="Query UPDATE origen WHERE correo = correo" style="rounded=1;whiteSpace=wrap;html=1;absoluteArcSize=1;arcSize=14;strokeWidth=2;" vertex="1" parent="WIyWlLk6GJQsqaUBKTNV-1">
          <mxGeometry x="257.5" y="300" width="275" height="40" as="geometry" />
        </mxCell>
        <mxCell id="0NQRld8o1Z5ptFw5upHm-6" value="Fin" style="strokeWidth=2;html=1;shape=mxgraph.flowchart.start_1;whiteSpace=wrap;" vertex="1" parent="WIyWlLk6GJQsqaUBKTNV-1">
          <mxGeometry x="367.5" y="370" width="55" height="40" as="geometry" />
        </mxCell>
        <mxCell id="0NQRld8o1Z5ptFw5upHm-9" style="edgeStyle=orthogonalEdgeStyle;rounded=0;orthogonalLoop=1;jettySize=auto;html=1;exitX=0.5;exitY=1;exitDx=0;exitDy=0;entryX=0.5;entryY=0;entryDx=0;entryDy=0;entryPerimeter=0;" edge="1" parent="WIyWlLk6GJQsqaUBKTNV-1" source="0NQRld8o1Z5ptFw5upHm-2" target="0NQRld8o1Z5ptFw5upHm-3">
          <mxGeometry relative="1" as="geometry" />
        </mxCell>
        <mxCell id="0NQRld8o1Z5ptFw5upHm-11" style="edgeStyle=orthogonalEdgeStyle;rounded=0;orthogonalLoop=1;jettySize=auto;html=1;exitX=0.5;exitY=1;exitDx=0;exitDy=0;entryX=0.5;entryY=0;entryDx=0;entryDy=0;entryPerimeter=0;" edge="1" parent="WIyWlLk6GJQsqaUBKTNV-1" source="0NQRld8o1Z5ptFw5upHm-5" target="0NQRld8o1Z5ptFw5upHm-6">
          <mxGeometry relative="1" as="geometry" />
        </mxCell>
        <mxCell id="0NQRld8o1Z5ptFw5upHm-12" style="edgeStyle=orthogonalEdgeStyle;rounded=0;orthogonalLoop=1;jettySize=auto;html=1;exitX=1;exitY=0.5;exitDx=0;exitDy=0;exitPerimeter=0;entryX=0;entryY=0.5;entryDx=0;entryDy=0;entryPerimeter=0;" edge="1" parent="WIyWlLk6GJQsqaUBKTNV-1" source="0NQRld8o1Z5ptFw5upHm-3" target="0NQRld8o1Z5ptFw5upHm-4">
          <mxGeometry relative="1" as="geometry" />
        </mxCell>
        <mxCell id="0NQRld8o1Z5ptFw5upHm-13" value="SI" style="text;html=1;align=center;verticalAlign=middle;resizable=0;points=[];autosize=1;strokeColor=none;fillColor=none;" vertex="1" parent="WIyWlLk6GJQsqaUBKTNV-1">
          <mxGeometry x="405" y="258" width="30" height="30" as="geometry" />
        </mxCell>
        <mxCell id="0NQRld8o1Z5ptFw5upHm-14" value="No" style="text;html=1;align=center;verticalAlign=middle;resizable=0;points=[];autosize=1;strokeColor=none;fillColor=none;" vertex="1" parent="WIyWlLk6GJQsqaUBKTNV-1">
          <mxGeometry x="460" y="208" width="40" height="30" as="geometry" />
        </mxCell>
      </root>
    </mxGraphModel>
  </diagram>
</mxfile>
